<?xml version="1.0" encoding="UTF-8"?>
<svg width="191px" height="212px" viewBox="0 0 191 212" version="1.1"
  xmlns="http://www.w3.org/2000/svg"
  xmlns:xlink="http://www.w3.org/1999/xlink">
  <!-- Generator: Sketch 43.1 (39012) - http://www.bohemiancoding.com/sketch -->
  <title>terarium-icon</title>
  <desc>Created with Sketch.</desc>
  <defs></defs>
  <g id="Page-1" stroke="none" stroke-width="2" fill="none" fill-rule="evenodd">
    <g id="terarium-icon" stroke="#166359" stroke-opacity="0.3" fill-rule="nonzero">
      <path d="M93.6337,188.863 L21.2763,146.518 C20.1417,145.854 19.443,144.639 19.4403,143.325 L19.2363,60.0073 C19.2323,58.658 19.9617,57.414 21.1403,56.7567 L91.523,17.4953 C93.3337,16.4846 93.9657,14.1886 92.927,12.394 L87.3483,2.75664 C86.3337,1.00198 84.099,0.387318 82.3283,1.37532 L2.55501,45.874 C1.40435,46.5153 0.680344,47.718 0.652344,49.034 L0.652344,49.0487 L0.908346,153.981 C0.912346,155.295 1.61101,156.511 2.74568,157.175 L93.6963,210.402 C94.8617,211.083 96.3043,211.079 97.4643,210.391 L176.247,163.665 C177.996,162.627 178.584,160.374 177.566,158.614 L171.987,148.977 C170.952,147.189 168.658,146.59 166.882,147.643 L97.4017,188.853 C96.2417,189.541 94.7977,189.545 93.6337,188.863 Z" id="Shape"></path>
      <path d="M95.3173,91.532 C101.016,91.532 105.635,96.152 105.635,101.849 C105.635,107.548 101.016,112.168 95.3173,112.168 C89.6187,112.168 85,107.548 85,101.849 C85,96.152 89.6187,91.532 95.3173,91.532 Z" id="Shape"></path>
      <path d="M179.659,42.9421 C185.358,42.9421 189.976,47.5621 189.976,53.2595 C189.976,58.9581 185.358,63.5781 179.659,63.5781 C173.96,63.5781 169.342,58.9581 169.342,53.2595 C169.342,47.5621 173.96,42.9421 179.659,42.9421 Z" id="Shape"></path>
      <path d="M179.659,106.169 C185.358,106.169 189.976,110.789 189.976,116.486 C189.976,122.185 185.358,126.805 179.659,126.805 C173.96,126.805 169.342,122.185 169.342,116.486 C169.342,110.789 173.96,106.169 179.659,106.169 Z" id="Shape"></path>
      <path d="M179.659,74.616 C185.358,74.616 189.976,79.236 189.976,84.9333 C189.976,90.632 185.358,95.252 179.659,95.252 C173.96,95.252 169.342,90.632 169.342,84.9333 C169.342,79.236 173.96,74.616 179.659,74.616 Z" id="Shape"></path>
      <path d="M124.95,11.2703 C130.649,11.2703 135.267,15.8903 135.267,21.5876 C135.267,27.2863 130.649,31.9062 124.95,31.9062 C119.251,31.9062 114.633,27.2863 114.633,21.5876 C114.633,15.8903 119.251,11.2703 124.95,11.2703 Z" id="Shape"></path>
      <path d="M152.305,27.1062 C158.003,27.1062 162.622,31.7262 162.622,37.4235 C162.622,43.1222 158.003,47.7422 152.305,47.7422 C146.606,47.7422 141.987,43.1222 141.987,37.4235 C141.987,31.7262 146.606,27.1062 152.305,27.1062 Z" id="Shape"></path>
      <path d="M151.465,59.1394 C157.163,59.1394 161.782,63.7594 161.782,69.4567 C161.782,75.1554 157.163,79.7754 151.465,79.7754 C145.766,79.7754 141.147,75.1554 141.147,69.4567 C141.147,63.7594 145.766,59.1394 151.465,59.1394 Z" id="Shape"></path>
      <path d="M123.391,75.3367 C129.089,75.3367 133.708,79.9567 133.708,85.654 C133.708,91.3527 129.089,95.9727 123.391,95.9727 C117.692,95.9727 113.073,91.3527 113.073,85.654 C113.073,79.9567 117.692,75.3367 123.391,75.3367 Z" id="Shape"></path>
    </g>
  </g>
</svg>
