<?xml version="1.0" encoding="UTF-8"?>
<svg width="200" height="200" viewBox="0 0 200 200" fill="none" xmlns="http://www.w3.org/2000/svg">
<path d="M137.973 17.3535L194.646 73.998L135.549 133.078L123.407 120.939L148.272 96.0805L148.564 95.7893L148.171 95.6653C144.572 94.5297 140.482 94.2259 136.097 94.8105C127.022 96.0175 117.949 100.767 110.544 108.169C103.14 115.571 98.3894 124.629 97.182 133.663L97.1818 133.664L93.3699 163.331L93.3287 163.651L93.6496 163.61L123.312 159.812L123.313 159.812C132.375 158.605 141.436 153.856 148.84 146.454C156.109 139.187 160.82 130.325 162.133 121.42L162.142 121.429L162.215 120.938C162.249 120.709 162.272 120.481 162.294 120.261C162.298 120.225 162.302 120.19 162.305 120.154H177.981C177.908 121.095 177.813 122.037 177.687 122.988M177.687 122.988C177.687 122.988 177.687 122.988 177.687 122.988L177.931 123.02L177.687 122.988Z" stroke="#1B8073" stroke-opacity="0.3" stroke-width="0.5"/>
<path d="M29.8342 76.3904L74.2077 120.554L62.0568 132.647L5.35439 76.2132L64.4948 17.3526L76.6455 29.4336L29.8341 76.036L29.6562 76.2132L29.8342 76.3904Z" stroke="#1B8073" stroke-opacity="0.3" stroke-width="0.5"/>
</svg>
